<svg xmlns="http://www.w3.org/2000/svg" xmlns:xlink="http://www.w3.org/1999/xlink" width="48" zoomAndPan="magnify" viewBox="0 0 36 36.000001" height="48" preserveAspectRatio="xMidYMid meet" version="1.0"><defs><g/></defs><g fill="#f7b500" fill-opacity="1"><g transform="translate(3.897145, 19.417763)"><g><path d="M 8.03125 -3.921875 L 9 -3.921875 L 9 0 L 0.953125 0 L 0.953125 -3.921875 L 6.453125 -3.921875 L 6.453125 -4.5625 C 6.453125 -4.695312 6.410156 -4.800781 6.328125 -4.875 C 6.242188 -4.957031 6.140625 -5 6.015625 -5 L 1.734375 -5 L 1.734375 -9.9375 L 5.5 -9.9375 C 6.238281 -9.9375 6.84375 -9.695312 7.3125 -9.21875 C 7.789062 -8.738281 8.03125 -8.132812 8.03125 -7.40625 Z M 8.03125 -3.921875 "/></g></g></g><g fill="#f7b500" fill-opacity="1"><g transform="translate(12.70554, 19.417763)"><g><path d="M 5.078125 -3.921875 L 5.078125 0 L -0.1875 0 L -0.1875 -3.921875 L 1.5625 -3.921875 L 1.5625 -9.9375 L 3.140625 -9.9375 L 3.140625 -3.921875 Z M 2.265625 1.953125 L 3.296875 0.953125 L 4.53125 2.1875 L 3.296875 3.4375 L 2.265625 2.421875 L 1.25 3.4375 L 0 2.1875 L 1.25 0.953125 Z M 2.265625 1.953125 "/></g></g></g><g fill="#f7b500" fill-opacity="1"><g transform="translate(17.594871, 19.417763)"><g><path d="M 5.078125 -3.921875 L 5.078125 0 L -0.1875 0 L -0.1875 -3.921875 L 1.5625 -3.921875 L 1.5625 -9.9375 L 3.140625 -9.9375 L 3.140625 -3.921875 Z M 1.015625 2.1875 L 2.265625 0.953125 L 3.5 2.1875 L 2.265625 3.4375 Z M 1.015625 2.1875 "/></g></g></g><g fill="#f7b500" fill-opacity="1"><g transform="translate(22.484202, 19.417763)"><g><path d="M 2.359375 -3.90625 L 8.65625 -3.90625 L 8.65625 0 L -0.1875 0 L -0.1875 -3.921875 L 0.78125 -3.921875 L 0.78125 -7.40625 C 0.78125 -8.132812 1.015625 -8.738281 1.484375 -9.21875 C 1.960938 -9.695312 2.570312 -9.9375 3.3125 -9.9375 L 7.875 -9.9375 L 7.875 -4.984375 L 2.796875 -4.984375 C 2.671875 -4.984375 2.566406 -4.941406 2.484375 -4.859375 C 2.398438 -4.773438 2.359375 -4.671875 2.359375 -4.546875 Z M 2.359375 -3.90625 "/></g></g></g><g fill="#f7b500" fill-opacity="1"><g transform="translate(6.631231, 27.589959)"><g><path d="M 3.015625 0.125 C 2.097656 0.125 1.410156 -0.0859375 0.953125 -0.515625 C 0.503906 -0.953125 0.28125 -1.648438 0.28125 -2.609375 C 0.28125 -3.546875 0.53125 -4.226562 1.03125 -4.65625 C 1.53125 -5.09375 2.195312 -5.3125 3.03125 -5.3125 C 4.769531 -5.3125 5.640625 -4.441406 5.640625 -2.703125 C 5.640625 -1.828125 5.425781 -1.132812 5 -0.625 C 4.570312 -0.125 3.910156 0.125 3.015625 0.125 Z M 2.984375 -0.96875 C 3.148438 -0.96875 3.289062 -0.992188 3.40625 -1.046875 C 3.53125 -1.109375 3.625 -1.210938 3.6875 -1.359375 C 3.820312 -1.609375 3.890625 -2.019531 3.890625 -2.59375 C 3.890625 -3.15625 3.820312 -3.5625 3.6875 -3.8125 C 3.5625 -4.070312 3.328125 -4.207031 2.984375 -4.21875 C 2.847656 -4.21875 2.710938 -4.203125 2.578125 -4.171875 C 2.441406 -4.140625 2.351562 -4.101562 2.3125 -4.0625 C 2.238281 -3.976562 2.179688 -3.796875 2.140625 -3.515625 C 2.109375 -3.234375 2.09375 -2.925781 2.09375 -2.59375 C 2.09375 -2.082031 2.140625 -1.707031 2.234375 -1.46875 C 2.304688 -1.289062 2.398438 -1.160156 2.515625 -1.078125 C 2.640625 -1.003906 2.796875 -0.96875 2.984375 -0.96875 Z M 2.984375 -0.96875 "/></g></g></g><g fill="#f7b500" fill-opacity="1"><g transform="translate(12.546832, 27.589959)"><g><path d="M 3.21875 -4.328125 C 3.695312 -4.328125 4.066406 -4.179688 4.328125 -3.890625 C 4.585938 -3.597656 4.71875 -3.085938 4.71875 -2.359375 C 4.71875 -1.828125 4.664062 -1.375 4.5625 -1 C 4.457031 -0.625 4.335938 -0.382812 4.203125 -0.28125 C 4.035156 -0.144531 3.796875 -0.0507812 3.484375 0 C 3.171875 0.0625 2.816406 0.09375 2.421875 0.09375 C 2.109375 0.09375 1.757812 0.0703125 1.375 0.03125 C 1 -0.0078125 0.664062 -0.0820312 0.375 -0.1875 L 0.375 -5.515625 L 1.953125 -5.59375 L 1.953125 -4.71875 C 1.953125 -4.664062 1.953125 -4.550781 1.953125 -4.375 C 1.953125 -4.195312 1.945312 -4.046875 1.9375 -3.921875 C 1.925781 -3.804688 1.90625 -3.71875 1.875 -3.65625 L 1.9375 -3.59375 C 2.070312 -3.8125 2.242188 -3.988281 2.453125 -4.125 C 2.671875 -4.257812 2.925781 -4.328125 3.21875 -4.328125 Z M 2.96875 -1 C 3 -1.0625 3.023438 -1.207031 3.046875 -1.4375 C 3.078125 -1.664062 3.09375 -1.882812 3.09375 -2.09375 C 3.09375 -2.332031 3.082031 -2.519531 3.0625 -2.65625 C 3.039062 -2.800781 2.988281 -2.914062 2.90625 -3 C 2.820312 -3.082031 2.695312 -3.125 2.53125 -3.125 C 2.375 -3.125 2.175781 -3.101562 1.9375 -3.0625 L 1.9375 -0.984375 C 2.164062 -0.941406 2.40625 -0.921875 2.65625 -0.921875 C 2.832031 -0.921875 2.9375 -0.945312 2.96875 -1 Z M 2.96875 -1 "/></g></g></g><g fill="#f7b500" fill-opacity="1"><g transform="translate(17.496432, 27.589959)"><g><path d="M 2.90625 0 L 2.75 -0.578125 C 2.46875 -0.117188 2.078125 0.109375 1.578125 0.109375 C 1.160156 0.109375 0.820312 -0.00390625 0.5625 -0.234375 C 0.300781 -0.460938 0.171875 -0.785156 0.171875 -1.203125 C 0.171875 -1.460938 0.242188 -1.6875 0.390625 -1.875 C 0.546875 -2.070312 0.753906 -2.210938 1.015625 -2.296875 C 1.359375 -2.390625 1.890625 -2.441406 2.609375 -2.453125 C 2.609375 -2.859375 2.59375 -3.070312 2.5625 -3.09375 C 2.53125 -3.125 2.429688 -3.140625 2.265625 -3.140625 C 2.160156 -3.140625 2.015625 -3.132812 1.828125 -3.125 C 1.535156 -3.101562 1.140625 -3.066406 0.640625 -3.015625 C 0.585938 -3.347656 0.550781 -3.707031 0.53125 -4.09375 C 0.851562 -4.15625 1.191406 -4.207031 1.546875 -4.25 C 1.898438 -4.300781 2.21875 -4.328125 2.5 -4.328125 C 2.988281 -4.328125 3.351562 -4.242188 3.59375 -4.078125 C 3.84375 -3.921875 4.003906 -3.707031 4.078125 -3.4375 C 4.160156 -3.175781 4.195312 -2.84375 4.1875 -2.4375 L 4.171875 -1.09375 L 4.203125 0 Z M 2.109375 -0.921875 C 2.265625 -0.921875 2.429688 -0.953125 2.609375 -1.015625 L 2.609375 -1.6875 L 2.546875 -1.6875 C 2.085938 -1.6875 1.832031 -1.664062 1.78125 -1.625 C 1.75 -1.59375 1.722656 -1.546875 1.703125 -1.484375 C 1.691406 -1.421875 1.6875 -1.363281 1.6875 -1.3125 C 1.6875 -1.164062 1.71875 -1.0625 1.78125 -1 C 1.851562 -0.945312 1.960938 -0.921875 2.109375 -0.921875 Z M 2.109375 -0.921875 "/></g></g></g><g fill="#f7b500" fill-opacity="1"><g transform="translate(22.013634, 27.589959)"><g><path d="M 1.203125 -4.765625 C 0.992188 -4.765625 0.8125 -4.832031 0.65625 -4.96875 C 0.507812 -5.113281 0.4375 -5.28125 0.4375 -5.46875 C 0.4375 -5.664062 0.507812 -5.832031 0.65625 -5.96875 C 0.8125 -6.113281 0.992188 -6.1875 1.203125 -6.1875 C 1.410156 -6.1875 1.585938 -6.113281 1.734375 -5.96875 C 1.878906 -5.832031 1.953125 -5.664062 1.953125 -5.46875 C 1.953125 -5.28125 1.878906 -5.113281 1.734375 -4.96875 C 1.585938 -4.832031 1.410156 -4.765625 1.203125 -4.765625 Z M 0.40625 -4.234375 L 1.984375 -4.234375 L 1.984375 0 L 0.40625 0 Z M 0.40625 -4.234375 "/></g></g></g><g fill="#f7b500" fill-opacity="1"><g transform="translate(24.396435, 27.589959)"><g><path d="M 4.59375 -5.59375 L 4.59375 0 L 3.296875 0 L 3.171875 -0.703125 C 3.046875 -0.460938 2.863281 -0.269531 2.625 -0.125 C 2.382812 0.0078125 2.113281 0.078125 1.8125 0.078125 C 1.332031 0.078125 0.945312 -0.09375 0.65625 -0.4375 C 0.375 -0.78125 0.234375 -1.296875 0.234375 -1.984375 C 0.234375 -2.503906 0.296875 -2.929688 0.421875 -3.265625 C 0.546875 -3.609375 0.691406 -3.851562 0.859375 -4 C 0.960938 -4.09375 1.175781 -4.171875 1.5 -4.234375 C 1.820312 -4.296875 2.109375 -4.328125 2.359375 -4.328125 C 2.578125 -4.328125 2.800781 -4.304688 3.03125 -4.265625 C 3.019531 -4.554688 3.015625 -4.71875 3.015625 -4.75 L 3.015625 -5.515625 Z M 2.5 -1.15625 C 2.664062 -1.15625 2.835938 -1.1875 3.015625 -1.25 L 3.015625 -3.234375 C 2.835938 -3.265625 2.640625 -3.28125 2.421875 -3.28125 C 2.242188 -3.28125 2.128906 -3.265625 2.078125 -3.234375 C 2.015625 -3.179688 1.960938 -3.039062 1.921875 -2.8125 C 1.878906 -2.582031 1.859375 -2.34375 1.859375 -2.09375 C 1.859375 -1.71875 1.914062 -1.46875 2.03125 -1.34375 C 2.144531 -1.21875 2.300781 -1.15625 2.5 -1.15625 Z M 2.5 -1.15625 "/></g></g></g></svg>